<svg width="48" height="48" viewBox="0 0 48 48" fill="none" xmlns="http://www.w3.org/2000/svg">
<path d="M25.3227 38.2519V40.773H27.5111C27.6121 40.773 28.0697 41.1415 28.1425 41.2544C28.606 41.9779 28.1484 42.9302 27.2927 43.0015L14.9929 42.9807C14.161 42.7579 13.8505 41.7744 14.4314 41.1177C14.5205 41.0167 14.8711 40.7715 14.9766 40.7715H17.0907V38.2504H8.22429C7.22296 38.2519 5.7373 36.7439 5.74028 35.6921L5.7373 16.9996C5.83833 15.8229 6.76835 14.7963 7.87516 14.465C14.1223 14.2333 20.4156 14.4517 26.6791 14.3536L37.465 5.55706C40.307 3.68959 43.5948 6.87781 41.702 9.79415L36.7637 15.9076L36.737 35.6847C36.6627 36.79 35.2959 38.2519 34.1861 38.2519H25.3212H25.3227ZM39.7618 7.49733C39.5033 7.23882 39.0472 7.23734 38.7515 7.4379L30.5477 14.1471L30.5849 14.3343C30.9266 14.5869 32.8936 16.7648 33.0644 16.7366L39.8212 8.50609C40.0233 8.21044 40.0203 7.75434 39.7618 7.49584V7.49733ZM28.6342 15.71C27.3803 16.8228 25.4282 17.7171 26.1354 19.7495C26.4875 20.7598 27.5616 21.3808 28.6149 21.259C29.9475 21.1059 30.7245 19.5267 31.5431 18.6204L28.6342 15.71ZM24.2842 16.6683H8.44714C8.2436 16.6683 7.9643 17.2001 7.9643 17.3725V32.021H34.4461V18.7452C32.5772 20.7226 31.2727 23.7563 28.0667 23.5662C28.3653 25.6832 27.0981 27.8894 25.0627 28.61C23.2354 29.2562 21.2683 28.5743 19.5821 29.4345C19.3251 29.5652 19.0948 29.8119 18.869 29.9069C18.2168 30.1818 17.5052 29.8416 17.3076 29.1686C17.0877 28.4168 17.5052 28.2802 17.7964 27.7215C18.6328 26.1141 18.0578 24.257 18.5362 22.5277C19.1498 20.3037 21.4154 18.87 23.69 19.1894C23.6528 18.298 23.9143 17.4601 24.2842 16.6683ZM25.0746 25.9878C27.049 24.1099 25.0003 20.5845 22.2088 21.6021C20.0011 22.4059 20.7588 24.9404 20.5017 26.7559C21.8983 26.5107 23.95 27.056 25.0746 25.9878ZM34.4476 34.3208H7.96579C7.95836 34.8631 7.86328 35.8674 8.59273 35.955H33.7464C33.9648 36.0382 34.4476 35.6341 34.4476 35.4692V34.3193V34.3208ZM23.0229 38.2519H19.3875V40.773H23.0229V38.2519Z" fill="#D99AC5"/>
</svg>
