<svg width="48" height="48" viewBox="0 0 48 48" fill="none" xmlns="http://www.w3.org/2000/svg">
<path d="M30.054 14.9182C30.8512 14.7833 31.4527 15.2723 31.5446 16.0546C31.6187 16.6814 31.5876 17.2118 31.7239 17.8727C32.364 20.9872 35.0043 23.5831 38.1203 24.198C38.7486 24.3225 39.6657 24.2721 40.1858 24.4247C41.3771 24.7744 41.2467 26.6383 39.8658 26.7998C37.4669 27.0799 35.8563 27.3288 34.0309 29.1009C32.1284 30.9486 31.835 32.6214 31.5446 35.121C31.3683 36.6324 29.3146 36.5597 29.1161 35.2722C29.0198 34.6513 29.0672 33.9875 28.9294 33.3148C28.273 30.1114 25.4934 27.4073 22.247 26.9036C21.318 26.7598 19.7074 27.0191 19.6377 25.6634C19.5592 24.1565 21.0646 24.4217 22.0381 24.2839C25.603 23.7831 28.5279 20.8583 29.0287 17.2948C29.1472 16.4473 28.8998 15.1138 30.054 14.9182ZM34.8073 25.6234C34.2176 25.1848 33.5701 24.8307 32.9966 24.3654C31.8987 23.4735 31.0364 22.3355 30.3311 21.1146C29.242 22.9978 27.7381 24.5003 25.8579 25.5878C27.0788 26.2916 28.2167 27.154 29.1087 28.2534C29.5739 28.8268 29.9281 29.4728 30.3681 30.0625C31.2942 28.1778 32.9285 26.5465 34.8073 25.6234Z" fill="#14BDEB"/>
<path d="M14.3728 25.9359C14.6469 25.8959 14.841 25.9582 15.084 26.0767C15.9212 26.4856 15.6841 27.2546 15.8145 28.0088C16.1805 30.1232 17.8814 31.8212 19.9943 32.1872C20.43 32.2628 21.036 32.202 21.4227 32.3872C22.2524 32.7814 22.2821 34.0793 21.4701 34.5149C21.0478 34.7416 20.1677 34.6957 19.6284 34.8172C17.6962 35.2558 16.1508 36.9849 15.816 38.9185C15.6989 39.5927 15.896 40.3395 15.2307 40.7736C14.7803 41.067 14.358 41.0759 13.8957 40.8017C13.1682 40.3691 13.383 39.6164 13.263 38.9185C12.903 36.8056 11.1901 35.1046 9.08316 34.7401C8.409 34.6231 7.66222 34.8202 7.22809 34.1549C6.93471 33.7044 6.92582 33.2822 7.19994 32.8199C7.62963 32.0983 8.38232 32.3102 9.08316 32.1887C11.1842 31.8242 12.903 30.1143 13.263 28.0103C13.4038 27.1835 13.1874 26.1108 14.3728 25.9374V25.9359ZM14.5017 31.3189C14.441 31.3352 13.8646 32.2065 13.7268 32.3191C13.6097 32.5621 12.3607 33.3711 12.3933 33.5C12.4096 33.5607 13.2823 34.1356 13.3934 34.2749C13.6364 34.3919 14.4454 35.641 14.5743 35.6084C14.6351 35.5921 15.2114 34.7209 15.3492 34.6083C15.4663 34.3653 16.7154 33.5563 16.6828 33.4274C16.6665 33.3666 15.7937 32.7917 15.6826 32.6524C15.4396 32.5354 14.6306 31.2863 14.5017 31.3189Z" fill="#14BDEB"/>
<path d="M20.408 11.8407C21.1236 12.5505 22.1831 13.078 23.1758 13.2513C23.764 13.3535 24.496 13.2187 24.9257 13.7195C25.2946 14.1477 25.2946 14.9078 24.9257 15.3375C24.4871 15.8472 23.7596 15.705 23.1758 15.8057C21.134 16.1584 19.3841 17.7808 18.9959 19.8359C18.8448 20.6361 19.0878 21.6421 18.1054 21.9785C17.3098 22.2511 16.5674 21.734 16.4682 20.9176C16.1911 18.6254 15.4295 16.7763 13.0232 16.0043C12.2157 15.745 10.8615 15.8887 10.3947 15.2308C9.92799 14.573 10.2762 13.5047 11.103 13.3491C12.478 13.0898 13.0855 13.2513 14.339 12.3697C15.9644 11.2273 16.2444 9.98566 16.4697 8.138C16.5763 7.25787 17.4372 6.72743 18.2595 7.14526C19.0923 7.56754 18.8493 8.44322 18.9959 9.21963C19.1708 10.1442 19.7427 11.1814 20.4065 11.8393L20.408 11.8407ZM19.8642 14.4574C19.8153 14.3981 19.1767 14.0129 19.0122 13.8662C18.4922 13.4024 18.0832 12.8483 17.6461 12.3119C17.3424 12.9357 16.7556 13.5151 16.24 13.9773C16.1096 14.0944 15.5451 14.4174 15.5762 14.5611C15.5955 14.653 16.1185 14.976 16.24 15.0856C16.7808 15.5702 17.3068 16.1273 17.6817 16.7511C18.0862 16.1584 18.55 15.6013 19.0893 15.1271C19.2923 14.9493 19.6449 14.776 19.8168 14.613C19.8687 14.5641 19.9042 14.5107 19.8627 14.4604L19.8642 14.4574Z" fill="#14BDEB"/>
</svg>
