<svg width="48" height="48" viewBox="0 0 48 48" fill="none" xmlns="http://www.w3.org/2000/svg">
<path d="M8.28593 16.5002C8.01876 16.4565 7.54535 16.061 7.38755 15.8375C6.73915 14.9091 7.3563 13.4415 8.51561 13.3759L16.6573 13.3665C17.1995 11.9442 17.9135 10.5641 18.8572 9.36532C24.6037 2.06475 35.7687 2.2398 41.2715 9.72167C46.8477 17.302 43.4901 28.1411 34.7078 31.3061C32.3501 32.1563 28.6035 32.5018 26.2224 31.6406C25.174 31.2623 24.7318 30.0573 25.4427 29.1398C26.2286 28.1255 27.1301 28.6694 28.1191 28.8069C41.0293 30.5965 45.6837 13.2211 34.4281 8.1384C24.249 3.54331 14.5574 15.5249 21.1602 24.5307C21.9179 25.5638 23.4007 26.4641 22.3257 27.8942L18.6556 31.5624C18.5806 31.7312 18.965 32.6737 18.9994 33.0128C19.1509 34.468 18.7822 35.7246 17.8416 36.828C15.9698 39.024 13.4153 41.0918 11.3904 43.1705C6.66728 46.1698 1.63477 40.415 5.20174 36.1216C7.25787 34.3038 9.10151 31.9172 11.1686 30.1526C12.2904 29.1961 13.5887 28.8288 15.0621 28.9929C15.3652 29.0257 16.2433 29.3962 16.3808 29.3633C16.6761 29.293 18.4916 27.1486 18.9181 26.8407C17.9291 25.6076 17.201 24.204 16.6182 22.7395L5.39548 22.7458C4.23774 22.6801 3.61746 21.2141 4.26742 20.2841C4.40023 20.095 4.94551 19.6214 5.16581 19.6214H15.9698C15.8417 18.618 15.8417 17.5021 15.9698 16.5002H8.28593ZM14.2356 32.122C13.9325 32.1454 13.5434 32.3314 13.3153 32.5346L7.51098 38.355C6.46104 39.8008 8.19688 41.5372 9.6421 40.4869L15.5308 34.5961C16.3386 33.613 15.5011 32.0251 14.234 32.122H14.2356Z" fill="#6D46C2"/>
<path d="M24.1417 19.6399L35.6613 19.6274C37.355 19.9994 37.3518 22.3642 35.6613 22.7346H24.2089C22.5512 22.3736 22.5043 20.0776 24.1433 19.6399H24.1417Z" fill="#6D46C2"/>
<path d="M26.4013 13.3971H33.4618C35.0508 13.855 35.018 16.1041 33.3962 16.4917L26.4013 16.4792C24.8389 16.0275 24.8389 13.8472 26.4013 13.3955V13.3971Z" fill="#6D46C2"/>
</svg>
