<svg width="160" height="52" viewBox="0 0 160 52" fill="none" xmlns="http://www.w3.org/2000/svg">
<path d="M86.8186 17.284C86.8186 15.7634 86.7673 14.3775 86.8378 12.9963C86.8843 12.083 86.5959 11.785 85.6634 11.7946C81.9013 11.8411 78.1376 11.8475 74.3722 11.793C73.366 11.7786 73.0488 12.0398 73.0568 13.0861C73.092 19.6425 73.0824 26.2006 73.0824 32.757H75.4041V38.0333H78.7656V31.0795H86.7561V38.0333H89.6626V32.757H92.3304V17.2856H86.8186V17.284ZM86.6247 25.3978H78.7913V17.425H86.6247V25.3978Z" fill="white"/>
<path d="M72.1557 13.1757C72.0804 14.3358 72.1189 15.5054 72.1301 16.7488C72.1349 17.0676 71.877 17.3288 71.5565 17.3288H59.288C58.9739 17.3288 58.7144 17.5851 58.7144 17.9024V32.0071C58.7144 32.3243 58.9723 32.5807 59.288 32.5807H65.7804C66.0944 32.5807 66.354 32.3243 66.354 32.0071V28.5062C66.354 28.1889 66.096 27.9325 65.7804 27.9325H62.8434C62.5262 27.9325 62.2698 27.6762 62.2698 27.3589V23.0889C62.2698 22.7717 62.5262 22.5153 62.8434 22.5153H71.5501C71.8321 22.5153 72.0788 22.7204 72.1157 22.9992C72.1221 23.0521 72.1269 23.1065 72.1269 23.1578C72.1269 26.3559 72.1173 29.5572 72.1157 32.7553H69.1787V38.0893C69.1787 38.0893 63.1847 38.1213 59.1502 38.1149H59.1454C58.841 38.1133 58.6022 37.8473 58.6022 37.5413V33.5228C58.6022 33.2056 58.3459 32.9492 58.0286 32.9492C56.6026 32.9444 55.2471 32.9284 53.8964 32.9604C53.1866 32.9765 52.9382 32.7137 52.9414 32.0119C52.9575 25.4971 52.9526 18.9791 52.9575 12.4643C52.9575 12.4371 52.9575 12.4066 52.9623 12.3762C52.9927 12.1038 53.2138 11.8939 53.4894 11.8715C53.757 11.8507 54.0246 11.8314 54.2953 11.8314C59.8039 11.8202 65.3125 11.8474 70.8195 11.7866C71.9282 11.7721 72.2198 12.1246 72.1541 13.1725L72.1557 13.1757Z" fill="white"/>
<path d="M121.605 18.2531C121.578 24.6526 121.589 31.0504 121.584 37.4498C121.584 37.6341 121.533 37.8183 121.493 38.0811H115.914V17.436H110.346V38.0779H104.669V17.4312H98.9107V38.0907H95.868V32.7568H93.2259C93.2259 26.226 93.2355 19.6936 93.2003 13.1628C93.1955 12.1453 93.4566 11.8473 94.4933 11.8521C101.242 11.8986 107.992 11.8761 114.739 11.8777C115.084 11.8777 115.427 11.9082 115.916 11.9306V17.3062C117.558 17.3062 119.056 17.3318 120.556 17.2966C121.262 17.2806 121.604 17.4392 121.602 18.2547L121.605 18.2531Z" fill="white"/>
<path d="M159.714 21.6308V32.6912C158.261 32.6912 156.795 32.7377 155.337 32.672C154.454 32.6319 154.175 32.9443 154.222 33.8048C154.283 34.9648 154.278 36.1312 154.203 37.2897C154.183 37.5813 153.788 38.086 153.562 38.0892C149.979 38.1261 146.4 38.1261 142.767 38.1261V32.6303H154.071V27.2675H140.1V17.2903H145.583C145.583 15.7056 145.594 14.2508 145.578 12.7927C145.573 12.2399 145.597 11.8121 146.352 11.8169C150.767 11.8362 155.185 11.8265 159.706 11.8265V17.2935H145.764V21.6308H159.714Z" fill="white"/>
<path d="M138.989 11.9498V17.3125H128.267V21.7027H134.995V27.1809H128.259V32.5773H136.323V38.1227H130.159C128.475 38.1227 127.634 37.2618 127.634 35.5399V32.7007C126.222 32.7007 124.918 32.6542 123.62 32.7199C122.747 32.7615 122.495 32.4619 122.5 31.5951C122.532 25.3543 122.521 19.1119 122.514 12.8711C122.513 12.2862 122.505 11.8024 123.327 11.8072C128.444 11.8328 133.562 11.8312 138.681 11.8424C138.752 11.8424 138.824 11.8921 138.989 11.9498Z" fill="white"/>
<path d="M17.6045 1.75928C21.6614 -0.58302 26.6587 -0.586516 30.7188 1.74951L41.5547 7.98779C45.6387 10.3367 48.1495 14.6933 48.1367 19.4038V20.104L48.1123 27.7339L48.1016 31.7886C48.0887 36.4287 45.6258 40.7187 41.625 43.0708L30.2812 49.7388C26.1843 52.147 21.1083 52.1552 17.0049 49.7583L6.50879 43.6284C2.47753 41.2747 3.57239e-05 36.9579 0 32.2905V19.5044C0 14.813 2.50277 10.479 6.56445 8.1333L17.6045 1.75928ZM25.4336 5.78076C24.9386 5.49255 24.5844 5.59699 24.1455 5.8501C19.4269 8.57234 14.7302 11.3399 9.95703 13.9644C7.92895 15.0779 7.09766 16.6864 7.09766 18.8813C7.09926 23.6512 7.08429 28.4211 7.10352 33.1909C7.11153 35.213 7.99035 36.743 9.78809 37.7524C13.3033 39.728 16.7863 41.7663 20.3096 43.729C23.224 45.352 26.2396 45.4517 29.1748 43.8608C32.8135 41.8885 36.3919 39.8039 39.9697 37.7241C41.6296 36.7596 42.5156 35.3044 42.4932 33.3208C42.4611 30.5954 42.4609 27.8999 42.4609 27.8999L32.6201 32.9731C32.3333 38.2092 32.1055 40.1271 25.1553 40.9907C23.7068 40.9891 22.9824 40.2779 22.9824 38.8198C22.9776 34.3367 22.6456 32.5787 22.5879 28.0972C22.5591 25.9102 23.4165 24.2964 25.2734 23.2085C27.9171 21.6575 30.574 20.1309 33.2305 18.604C35.5864 17.2491 37.9517 15.9049 40.4277 14.4907C40.4287 14.4914 40.4297 14.492 40.4307 14.4927V14.4897C40.4298 14.4902 40.4286 14.4902 40.4277 14.4907C40.2043 14.3353 40.1053 14.2541 39.9971 14.1919C35.1406 11.3911 30.2788 8.59914 25.4336 5.78076Z" fill="white"/>
<path d="M14.4931 32.5325C13.2113 32.5582 11.7853 31.1257 11.7565 29.6517C11.7276 28.1776 12.7435 26.9631 14.0253 26.9374C15.3071 26.9118 16.3694 28.0862 16.3998 29.5603C16.4303 31.0344 15.7765 32.5069 14.4947 32.5325H14.4931Z" fill="white"/>
</svg>
