<svg width="230" height="59" viewBox="0 0 230 59" fill="none" xmlns="http://www.w3.org/2000/svg">
<path d="M77.8896 42.13C74.7176 42.13 72.2389 41.3413 70.4536 39.764C68.6856 38.1693 67.8016 35.812 67.8016 32.692C67.8016 29.5893 68.7029 27.2493 70.5056 25.672C72.3256 24.0773 74.9602 23.28 78.4096 23.28H88.2896V26.66H78.6956C76.4249 26.66 74.7436 27.1367 73.6516 28.09C72.5769 29.0433 72.0396 30.5773 72.0396 32.692C72.0396 34.7027 72.5162 36.1933 73.4696 37.164C74.4229 38.1173 75.8182 38.6373 77.6556 38.724V31.496H89.3036V42.13H77.8896ZM81.5556 38.75H85.1436V34.876H81.5556V38.75ZM92.5473 42V38.282H96.7073V42H92.5473ZM98.4552 42L106.827 23.41H113.249L121.621 42H117.097L115.329 38.074H104.747L102.979 42H98.4552ZM106.255 34.694H113.821L110.207 26.66H109.869L106.255 34.694ZM123.315 42V38.282H127.475V42H123.315ZM130.782 42V23.41H134.266L142.872 29.442H143.002L151.608 23.41H155.092V42H150.932V28.61L145.03 32.562V42H140.87V32.562L134.942 28.61V42H130.782ZM158.348 42V38.282H162.508V42H158.348ZM165.815 42V23.41H186.199V26.79H169.975V30.898H184.691V34.278H169.975V38.62H186.199V42H165.815ZM188.658 42V38.282H192.818V42H188.658ZM195.528 42.13V38.75L210.478 38.776C211.24 38.776 211.821 38.6027 212.22 38.256C212.636 37.892 212.844 37.3113 212.844 36.514C212.844 35.7167 212.636 35.1447 212.22 34.798C211.821 34.434 211.24 34.252 210.478 34.252H201.17C199.246 34.252 197.746 33.7927 196.672 32.874C195.614 31.938 195.086 30.5687 195.086 28.766C195.086 26.9633 195.614 25.6027 196.672 24.684C197.746 23.748 199.246 23.28 201.17 23.28H215.782V26.66L201.612 26.634C200.866 26.634 200.286 26.8073 199.87 27.154C199.454 27.4833 199.246 28.0207 199.246 28.766C199.246 29.5113 199.454 30.0573 199.87 30.404C200.286 30.7333 200.866 30.898 201.612 30.898H210.92C212.844 30.898 214.334 31.3747 215.392 32.328C216.466 33.264 217.004 34.6593 217.004 36.514C217.004 38.3513 216.466 39.7467 215.392 40.7C214.334 41.6533 212.844 42.13 210.92 42.13H195.528ZM219.222 42V38.282H223.382V42H219.222Z" fill="black"/>
<path d="M15.2177 55.4512H45.92C46.9308 55.4512 47.8253 54.7965 48.1309 53.8329L53.1444 38.0271C53.501 36.9027 52.957 35.6897 51.8801 35.2083L34.5462 27.459C32.9601 26.7499 31.4287 28.5482 32.3815 30.0012L39.0814 40.2186C39.8134 41.3348 39.0674 42.8255 37.7351 42.9088L23.3833 43.8058C22.653 43.8514 21.9722 43.4352 21.6799 42.7643L15.1353 27.742C14.8332 27.0486 15.0138 26.2395 15.582 25.7403L29.8516 13.2036C30.3017 12.8082 30.9237 12.6722 31.4977 12.8437L43.1471 16.3234C45.022 16.8834 46.2507 14.4005 44.6682 13.2496L31.9387 3.99171C31.1256 3.40042 30.0243 3.40016 29.211 3.99105L4.36338 22.0438C3.55042 22.6344 3.21023 23.6814 3.52075 24.6371L13.0117 53.8484C13.3222 54.8041 14.2128 55.4512 15.2177 55.4512Z" fill="black"/>
<circle cx="52.6105" cy="24.7456" r="4.63907" fill="black"/>
</svg>
