<svg width="192" height="60" viewBox="0 0 192 60" fill="none" xmlns="http://www.w3.org/2000/svg">
<path d="M100.088 19.9254C100.088 18.1725 100.029 16.5747 100.11 14.9824C100.164 13.9296 99.8312 13.586 98.7562 13.5971C94.4191 13.6507 90.0801 13.658 85.7393 13.5952C84.5793 13.5786 84.2136 13.8797 84.2228 15.0859C84.2635 22.6444 84.2524 30.2048 84.2524 37.7633H86.9289V43.846H90.8042V35.8294H100.016V43.846H103.367V37.7633H106.442V19.9273H100.088V19.9254ZM99.8645 29.2794H90.8338V20.088H99.8645V29.2794Z" fill="#212121"/>
<path d="M83.1833 15.1894C83.0964 16.5267 83.1408 17.8751 83.1537 19.3085C83.1593 19.6761 82.8619 19.9772 82.4924 19.9772H68.3488C67.9868 19.9772 67.6875 20.2727 67.6875 20.6385V36.8989C67.6875 37.2647 67.9849 37.5602 68.3488 37.5602H75.8335C76.1955 37.5602 76.4947 37.2647 76.4947 36.8989V32.8629C76.4947 32.4972 76.1973 32.2016 75.8335 32.2016H72.4476C72.0819 32.2016 71.7864 31.9061 71.7864 31.5403V26.6177C71.7864 26.252 72.0819 25.9564 72.4476 25.9564H82.485C82.8101 25.9564 83.0946 26.1928 83.1371 26.5143C83.1445 26.5752 83.15 26.638 83.15 26.6971C83.15 30.384 83.1389 34.0746 83.1371 37.7615H79.7513V43.9107C79.7513 43.9107 72.8411 43.9476 68.19 43.9403H68.1844C67.8335 43.9384 67.5582 43.6318 67.5582 43.279V38.6463C67.5582 38.2806 67.2627 37.985 66.897 37.985C65.253 37.9795 63.6903 37.961 62.1332 37.998C61.3149 38.0165 61.0286 37.7135 61.0323 36.9045C61.0507 29.394 61.0452 21.8798 61.0507 14.3693C61.0507 14.3379 61.0507 14.3028 61.0563 14.2677C61.0914 13.9536 61.3463 13.7117 61.664 13.6858C61.9725 13.6618 62.2809 13.6396 62.5931 13.6396C68.9436 13.6267 75.2941 13.6581 81.6427 13.5879C82.921 13.5713 83.2571 13.9777 83.1814 15.1857L83.1833 15.1894Z" fill="#212121"/>
<path d="M140.191 21.0429C140.159 28.4204 140.172 35.7961 140.167 43.1736C140.167 43.386 140.108 43.5984 140.061 43.9014H133.63V20.1009H127.211V43.8977H120.666V20.0953H114.028V43.9125H110.52V37.7633H107.474C107.474 30.2343 107.485 22.7035 107.444 15.1745C107.439 14.0016 107.74 13.658 108.935 13.6636C116.715 13.7171 124.497 13.6913 132.276 13.6931C132.673 13.6931 133.068 13.7282 133.631 13.7541V19.9513C135.525 19.9513 137.252 19.9808 138.981 19.9402C139.795 19.9217 140.189 20.1046 140.187 21.0448L140.191 21.0429Z" fill="#212121"/>
<path d="M184.125 24.9368V37.6877C182.449 37.6877 180.759 37.7412 179.078 37.6655C178.06 37.6193 177.739 37.9795 177.792 38.9714C177.863 40.3088 177.857 41.6535 177.77 42.989C177.748 43.3252 177.292 43.907 177.031 43.9107C172.901 43.9532 168.775 43.9532 164.587 43.9532V37.6175H177.619V31.4351H161.512V19.9329H167.833C167.833 18.1061 167.846 16.4288 167.827 14.7479C167.822 14.1107 167.849 13.6175 168.719 13.623C173.81 13.6452 178.903 13.6341 184.115 13.6341V19.9366H168.041V24.9368H184.125Z" fill="#212121"/>
<path d="M160.232 13.7761V19.9585H147.871V25.0197H155.627V31.3351H147.861V37.5563H157.158V43.9493H150.052C148.111 43.9493 147.141 42.9568 147.141 40.9717V37.6986C145.514 37.6986 144.01 37.645 142.514 37.7207C141.507 37.7688 141.217 37.4233 141.223 36.424C141.26 29.2294 141.247 22.0329 141.239 14.8383C141.238 14.1641 141.228 13.6062 142.176 13.6118C148.076 13.6413 153.975 13.6395 159.877 13.6524C159.958 13.6524 160.041 13.7097 160.232 13.7761Z" fill="#212121"/>
<path d="M55.4939 22.3691V23.1763L55.4662 31.9724L55.4532 36.6475C55.4385 41.9969 52.5994 46.9417 47.9871 49.6533L34.9092 57.3411C30.1861 60.1174 24.3343 60.1266 19.6038 57.3633L7.50312 50.2961C2.85569 47.5826 0 42.6064 0 37.2257V22.4854C0 17.077 2.88525 12.0805 7.56777 9.37624L20.2946 2.02828C24.9716 -0.67225 30.7329 -0.675943 35.4135 2.0172L47.9058 9.20816C52.6142 11.9161 55.5086 16.9385 55.4939 22.3691Z" fill="#212121"/>
<path d="M46.6101 16.7039C43.7544 18.335 41.0261 19.8847 38.309 21.4474C35.2464 23.2077 32.1838 24.9681 29.136 26.7561C26.9952 28.0103 26.007 29.8704 26.0402 32.3918C26.1067 37.5582 26.4891 39.5846 26.4946 44.7529C26.4946 46.4338 27.3295 47.2539 28.9994 47.2558C37.0123 46.2601 37.2746 44.0491 37.6052 38.0126L48.9504 32.1646C48.9504 32.1646 48.9504 35.2715 48.9873 38.4135C49.0132 40.7002 47.9917 42.3774 46.0781 43.4894C41.9534 45.887 37.8287 48.2902 33.6338 50.564C30.2499 52.3982 26.7735 52.2837 23.4136 50.4125C19.3517 48.1498 15.336 45.8002 11.2834 43.5227C9.21085 42.359 8.19862 40.5949 8.18938 38.2638C8.16722 32.7649 8.18384 27.2659 8.18199 21.767C8.18199 19.2364 9.14067 17.3818 11.4792 16.0981C16.9818 13.0724 22.3958 9.88241 27.8356 6.7441C28.3418 6.45225 28.75 6.33219 29.3208 6.66468C34.9065 9.91381 40.5108 13.1315 46.1095 16.3604C46.2351 16.4324 46.3496 16.5266 46.6101 16.7076V16.7039Z" fill="white"/>
<path d="M16.7084 37.5048C15.2306 37.5343 13.5867 35.883 13.5534 34.1836C13.5202 32.4842 14.6913 31.0841 16.169 31.0545C17.6467 31.025 18.8714 32.3789 18.9065 34.0783C18.9416 35.7777 18.1879 37.4752 16.7102 37.5048H16.7084Z" fill="#212121"/>
</svg>
